HIERARCHY
ROOT Hips
{
	OFFSET 0.00000 0.00000 0.00000
	CHANNELS 6 Xposition Yposition Zposition Zrotation Yrotation Xrotation 
	JOINT LHipJoint
	{
		OFFSET 0 0 0
		CHANNELS 3 Zrotation Yrotation Xrotation
		JOINT LeftHip
		{
			OFFSET 1.53794 -1.55850 0.93568
			CHANNELS 3 Zrotation Yrotation Xrotation
			JOINT LeftKnee
			{
				OFFSET 2.28545 -6.27922 0.00000
				CHANNELS 3 Zrotation Yrotation Xrotation
				JOINT LeftAnkle
				{
					OFFSET 2.37329 -6.52057 0.00000
					CHANNELS 3 Zrotation Yrotation Xrotation
					JOINT LeftToe
					{
						OFFSET 0.14846 -0.40788 2.09160
						CHANNELS 3 Zrotation Yrotation Xrotation
						End Site
						{
							OFFSET 0.00000 -0.00000 1.07536
						}
					}
				}
			}
		}
	}
	JOINT RHipJoint
	{
		OFFSET 0 0 0
		CHANNELS 3 Zrotation Yrotation Xrotation
		JOINT RightHip
		{
			OFFSET -1.78290 -1.55850 0.93568
			CHANNELS 3 Zrotation Yrotation Xrotation
			JOINT RightKnee
			{
				OFFSET -2.24144 -6.15831 0.00000
				CHANNELS 3 Zrotation Yrotation Xrotation
				JOINT RightAnkle
				{
					OFFSET -2.35091 -6.45907 0.00000
					CHANNELS 3 Zrotation Yrotation Xrotation
					JOINT RightToe
					{
						OFFSET -0.14428 -0.39641 2.07944
						CHANNELS 3 Zrotation Yrotation Xrotation
						End Site
						{
							OFFSET -0.00000 -0.00000 1.06864
						}
					}
				}
			}
		}
	}
	JOINT lowerback
	{
		OFFSET 0 0 0
		CHANNELS 3 Zrotation Yrotation Xrotation
		JOINT Chest
		{
			OFFSET -0.08841 2.11430 -0.15818
			CHANNELS 3 Zrotation Yrotation Xrotation
			JOINT Chest2
			{
				OFFSET -0.00033 2.12605 -0.08097
				CHANNELS 3 Zrotation Yrotation Xrotation
				JOINT lowerneck
				{
					OFFSET 0 0 0
					CHANNELS 3 Zrotation Yrotation Xrotation
					JOINT Neck
					{
						OFFSET 0.04431 1.59447 0.43193
						CHANNELS 3 Zrotation Yrotation Xrotation
						JOINT Head
						{
							OFFSET 0.00455 1.62017 -0.58852
							CHANNELS 3 Zrotation Yrotation Xrotation
							End Site
							{
								OFFSET -0.00920 1.72955 -0.25850
							}
						}
					}
				}
				JOINT LeftCollar
				{
					OFFSET 0 0 0
					CHANNELS 3 Zrotation Yrotation Xrotation
					JOINT LeftShoulder
					{
						OFFSET 2.86490 1.49927 -0.33774
CHANNELS 3 Zrotation Xrotation Yrotation
						JOINT LeftElbow
						{
OFFSET 0 -4.874080 0.000000
CHANNELS 3 Zrotation Xrotation Yrotation
							JOINT LeftWrist
							{
OFFSET 0 -2.767290 0.000000
CHANNELS 3 Zrotation Xrotation Yrotation
								JOINT lhand
								{
									OFFSET 0 0 0
CHANNELS 3 Zrotation Xrotation Yrotation
									JOINT LFingers
									{
OFFSET 0 -0.989220 0.000000
CHANNELS 3 Zrotation Xrotation Yrotation
										End Site
										{
OFFSET 0 -0.797530 0.000000
										}
									}
								}
								JOINT LThumb
								{
OFFSET 0 0.000000 0.000000
CHANNELS 3 Zrotation Xrotation Yrotation
									End Site
									{
OFFSET 0 -0.809720 0.809720
									}
								}
							}
						}
					}
				}
				JOINT RightCollar
				{
					OFFSET 0 0 0
					CHANNELS 3 Zrotation Yrotation Xrotation
					JOINT RightShoulder
					{
						OFFSET -2.94414 1.45463 -0.25291
CHANNELS 3 Zrotation Xrotation Yrotation
						JOINT RightElbow
						{
OFFSET 0 -4.714040 0.000000
CHANNELS 3 Zrotation Xrotation Yrotation
							JOINT RightWrist
							{
OFFSET 0 -2.834680 0.000000
CHANNELS 3 Zrotation Xrotation Yrotation
								JOINT rhand
								{
									OFFSET 0 0 0
CHANNELS 3 Zrotation Xrotation Yrotation
									JOINT RFingers
									{
OFFSET 0 -0.868200 0.000000
CHANNELS 3 Zrotation Xrotation Yrotation
										End Site
										{
OFFSET 0 -0.699960 0.000000
										}
									}
								}
								JOINT RThumb
								{
OFFSET 0 0.000000 0.000000
CHANNELS 3 Zrotation Xrotation Yrotation
									End Site
									{
OFFSET 0 -0.710650 0.710650
									}
								}
							}
						}
					}
				}
			}
		}
	}
}
MOTION
Frames: 8
Frame Time: 0.008333333333333333
1.565600 16.285000 28.841900 178.861000 1.749100 -170.183000 0.000000 0.000000 0.000000 -10.606500 -20.388100 -39.799100 2.908400 10.545200 30.760900 0.636800 12.351600 15.556100 0.165900 -2.624100 -7.233900 0.000000 0.000000 0.000000 21.694700 -3.214300 9.477400 -2.471300 -9.785500 28.284900 -1.726900 -23.108900 26.773200 -0.638400 5.111900 -14.227900 -3.823300 6.778400 -6.355400 -2.664100 9.503900 -0.143100 0.203800 4.728200 3.223800 -2.804500 -4.509400 -38.291600 3.279500 -10.037900 41.625000 -1.191300 -3.952000 27.044300 0.000000 -0.000000 0.000000 37.896700 38.485800 -64.827800 116.012000 -57.282200 82.321500 13.676400 17.685800 -2.552300 0.000000 0.000000 0.000000 -7.125000 0.000000 0.000000 -10.415500 32.485000 -3.238200 0.000000 -0.000000 0.000000 -7.119900 -0.026600 59.482800 -104.075000 -59.238100 -72.158100 -9.730400 6.620000 -0.495100 0.000000 0.000000 0.000000 7.125000 0.000000 -0.000000 13.116100 29.352400 5.125300
1.559668 16.296165 28.570305 178.825411 1.882734 -170.229755 0.000000 0.000000 0.000000 -10.525552 -20.472258 -39.442997 2.567929 9.949672 28.823446 0.634986 11.808619 15.363848 0.237358 -3.117954 -8.608625 0.000000 0.000000 0.000000 21.502727 -3.374801 9.784096 -2.605144 -10.024925 29.058933 -1.513783 -25.195690 26.557780 -0.592902 4.928092 -13.703969 -3.793224 6.856836 -6.387012 -2.822158 9.618344 -0.321744 0.028226 4.796866 3.085979 -3.180630 -4.678275 -38.038567 3.639301 -10.326592 41.662683 -1.004142 -4.086332 27.129435 0.000000 0.000000 0.000000 38.401580 38.894519 -64.986835 116.591896 -57.150938 82.808864 13.804452 17.540303 -2.561651 0.000000 0.000000 0.000000 -7.125000 0.000000 0.000000 -10.314454 32.498259 -3.202541 0.000000 0.000000 0.000000 -6.988708 0.335364 59.659351 -103.918826 -59.255127 -72.023907 -9.469133 6.398997 -0.417152 0.000000 0.000000 0.000000 7.125000 0.000000 0.000000 13.326914 29.425393 5.187895
1.553262 16.299338 28.301716 178.792987 1.968257 -170.308558 0.000000 0.000000 0.000000 -10.436809 -20.602036 -39.239303 2.331318 9.521429 27.442961 0.736557 11.602581 16.189786 0.294374 -3.483496 -9.628443 0.000000 0.000000 0.000000 21.337065 -3.519198 9.963232 -2.804153 -10.365283 30.173470 -1.201988 -26.782366 25.680461 -0.572409 4.845176 -13.467565 -3.782257 6.910306 -6.427724 -2.939543 9.699434 -0.457935 -0.094409 4.845948 2.988000 -3.467421 -4.794210 -37.831074 3.888950 -10.559892 41.769487 -0.886502 -4.201198 27.283138 0.000000 0.000000 0.000000 38.737790 39.230436 -65.065196 117.037427 -57.048718 83.183070 13.943582 17.569251 -2.605385 0.000000 0.000000 0.000000 -7.125000 0.000000 0.000000 -10.208779 32.546771 -3.156792 0.000000 0.000000 0.000000 -6.895420 0.679366 59.724207 -103.596554 -59.289405 -71.746842 -9.211782 6.378831 -0.464708 0.000000 0.000000 0.000000 7.125000 0.000000 0.000000 13.518104 29.374822 5.283449
1.545698 16.292668 28.035836 178.783174 2.013174 -170.445679 0.000000 0.000000 0.000000 -10.398852 -20.680420 -39.065022 2.176066 9.222598 26.494853 0.919227 11.710302 17.801060 0.340127 -3.746341 -10.364387 0.000000 0.000000 0.000000 21.212468 -3.636760 10.068311 -3.055631 -10.782585 31.552262 -0.861007 -27.737044 24.402462 -0.573547 4.849757 -13.480495 -3.773415 6.940567 -6.463877 -2.994574 9.745310 -0.538124 -0.152184 4.873565 2.935184 -3.655812 -4.852401 -37.678340 4.014846 -10.703330 41.911421 -0.833853 -4.283182 27.458496 0.000000 0.000000 0.000000 38.864308 39.492973 -65.044408 117.348405 -56.976081 83.444033 14.090163 17.732053 -2.660849 0.000000 0.000000 0.000000 -7.125000 0.000000 0.000000 -10.098559 32.607444 -3.106695 0.000000 0.000000 0.000000 -6.851265 1.035255 59.682997 -103.125750 -59.338634 -71.341965 -8.993547 6.461245 -0.566509 0.000000 0.000000 0.000000 7.125000 0.000000 0.000000 13.672121 29.271345 5.381185
1.532998 16.261824 27.772615 178.903898 2.033132 -170.801573 0.000000 0.000000 0.000000 -10.727669 -20.201360 -38.328463 2.033987 8.934464 25.592071 1.115735 12.182802 19.462314 0.384370 -3.978788 -11.017416 0.000000 0.000000 0.000000 21.223424 -3.660347 10.324414 -3.324574 -11.198980 32.958249 -0.818509 -27.075292 23.802049 -0.591062 4.921843 -13.685727 -3.683953 6.944057 -6.425636 -2.847332 9.728213 -0.465898 -0.052046 4.859120 2.977612 -3.649182 -4.798668 -37.654753 3.884561 -10.539340 41.939194 -0.858138 -4.248709 27.435328 0.000000 0.000000 0.000000 38.468010 39.640564 -64.780977 117.452940 -56.951308 83.531611 14.230218 17.898904 -2.622398 0.000000 0.000000 0.000000 -7.125000 0.000000 0.000000 -9.981812 32.572692 -3.078293 0.000000 0.000000 0.000000 -6.937586 1.556673 59.507562 -102.514800 -59.399345 -70.816220 -9.008830 6.215260 -0.399379 0.000000 0.000000 0.000000 7.125000 0.000000 0.000000 13.682728 29.435893 5.330313
1.521471 16.230001 27.509736 179.007503 2.050106 -171.111486 0.000000 0.000000 0.000000 -10.956407 -19.848598 -37.890725 1.951439 8.763628 25.059183 1.298206 12.770448 20.940087 0.400290 -4.061849 -11.250805 0.000000 0.000000 0.000000 21.226015 -3.683346 10.471388 -3.639351 -11.656659 34.537738 -0.699753 -26.842328 23.018842 -0.609752 4.997549 -13.901573 -3.599089 6.936246 -6.393216 -2.738537 9.700012 -0.432267 0.008716 4.841838 2.989566 -3.717002 -4.766360 -37.570904 3.839339 -10.435173 41.987806 -0.838692 -4.242411 27.447281 0.000000 0.000000 0.000000 38.148215 39.847489 -64.530509 117.606487 -56.914649 83.660228 14.371837 18.038950 -2.604003 0.000000 0.000000 0.000000 -7.125000 0.000000 0.000000 -9.866337 32.558289 -3.045245 0.000000 0.000000 0.000000 -6.990890 2.055297 59.367298 -101.898127 -59.457463 -70.285242 -8.958126 6.080116 -0.293588 0.000000 0.000000 0.000000 7.125000 0.000000 0.000000 13.735940 29.539102 5.317301
1.510221 16.194676 27.247526 179.113339 2.057056 -171.416928 0.000000 0.000000 0.000000 -11.178423 -19.494633 -37.598120 1.916649 8.690177 24.831027 1.466385 13.403497 22.258137 0.396855 -4.044083 -11.200813 0.000000 0.000000 0.000000 21.238276 -3.700187 10.546882 -3.993370 -12.145675 36.257716 -0.563477 -26.687567 22.170795 -0.634140 5.094300 -14.177836 -3.510746 6.913799 -6.357669 -2.630027 9.652172 -0.404349 0.064945 4.815268 2.994914 -3.813216 -4.733787 -37.461401 3.820684 -10.335119 42.043419 -0.799507 -4.241963 27.467131 0.000000 0.000000 0.000000 37.801861 40.074416 -64.250924 117.756731 -56.878659 83.786085 14.516350 18.171431 -2.589639 0.000000 0.000000 0.000000 -7.125000 0.000000 0.000000 -9.749067 32.548005 -3.010550 0.000000 0.000000 0.000000 -7.039083 2.561511 59.222311 -101.244758 -59.516065 -69.722375 -8.896062 5.994111 -0.204841 0.000000 0.000000 0.000000 7.125000 0.000000 0.000000 13.795698 29.625379 5.312495
1.498358 16.150923 26.986747 179.245229 2.040099 -171.763750 0.000000 0.000000 0.000000 -11.498727 -18.990172 -37.353740 1.942957 8.746073 25.004298 1.611882 14.026380 23.353660 0.373547 -3.924963 -10.865715 0.000000 0.000000 0.000000 21.286706 -3.700885 10.554279 -4.401182 -12.672188 38.159302 -0.468224 -26.246678 21.358660 -0.672730 5.244334 -14.606791 -3.407537 6.864533 -6.306797 -2.477481 9.563618 -0.347057 0.154686 4.766629 3.017733 -3.900236 -4.675519 -37.352051 3.775464 -10.176572 42.093872 -0.757358 -4.224657 27.467619 0.000000 0.000000 0.000000 37.293771 40.286836 -63.876677 117.840819 -56.858352 83.856566 14.666942 18.314486 -2.562912 0.000000 0.000000 0.000000 -7.125000 0.000000 0.000000 -9.625412 32.525255 -2.976775 0.000000 0.000000 0.000000 -7.111797 3.115030 59.023430 -100.497802 -59.579010 -69.078488 -8.879872 5.913162 -0.091165 0.000000 0.000000 0.000000 7.125000 0.000000 0.000000 13.823681 29.736892 5.285977
